<svg id="Layer_2" data-name="Layer 2" xmlns="http://www.w3.org/2000/svg" xmlns:xlink="http://www.w3.org/1999/xlink" viewBox="0 0 1921.08 1082.24"><defs><style>.cls-1{fill:#f5f5f5;}.cls-2{fill:url(#linear-gradient);}.cls-3{fill:url(#linear-gradient-2);}.cls-4{opacity:0.8;}.cls-5{fill:#e35362;}.cls-6{fill:#90549f;}.cls-7{fill:#e5cc5c;}.cls-8{opacity:0.7;}.cls-9{fill:#99bfe6;}.cls-10{fill:#56bc76;}.cls-11{fill:url(#linear-gradient-3);}.cls-12{fill:url(#linear-gradient-4);}.cls-13{fill:url(#linear-gradient-5);}.cls-14{fill:url(#linear-gradient-6);}.cls-15{fill:url(#linear-gradient-7);}.cls-16{fill:url(#linear-gradient-8);}.cls-17{fill:#63b1be;}.cls-18{fill:url(#linear-gradient-9);}.cls-19{fill:url(#linear-gradient-10);}.cls-20{fill:url(#linear-gradient-11);}.cls-21{fill:url(#linear-gradient-12);}</style><linearGradient id="linear-gradient" x1="418.79" y1="675.38" x2="578.21" y2="675.38" gradientTransform="translate(477.19 1491.8) rotate(-89.31)" gradientUnits="userSpaceOnUse"><stop offset="0.58" stop-color="#b8d3ee"/><stop offset="0.65" stop-color="#c5dbf1" stop-opacity="0.82"/><stop offset="0.82" stop-color="#e4eef9" stop-opacity="0.38"/><stop offset="0.94" stop-color="#f7fafd" stop-opacity="0.11"/><stop offset="1" stop-color="#fff" stop-opacity="0"/></linearGradient><linearGradient id="linear-gradient-2" x1="418.68" y1="744.88" x2="578.32" y2="744.88" gradientTransform="translate(474.13 1486.23) rotate(-88.95)" xlink:href="#linear-gradient"/><linearGradient id="linear-gradient-3" x1="631.45" y1="297.88" x2="911.05" y2="297.88" gradientTransform="translate(0.82 -2.11) rotate(0.16)" gradientUnits="userSpaceOnUse"><stop offset="0" stop-color="#a676b2"/><stop offset="0.58" stop-color="#a676b2"/><stop offset="0.77" stop-color="#d278af" stop-opacity="0.51"/><stop offset="0.93" stop-color="#f27aad" stop-opacity="0.14"/><stop offset="1" stop-color="#ff7bac" stop-opacity="0"/></linearGradient><linearGradient id="linear-gradient-4" x1="630.93" y1="366.96" x2="912.07" y2="366.96" gradientTransform="translate(1135.5 -405.94) rotate(89.78)" gradientUnits="userSpaceOnUse"><stop offset="0.58" stop-color="#a676b2"/><stop offset="0.77" stop-color="#d278af" stop-opacity="0.51"/><stop offset="0.93" stop-color="#f27aad" stop-opacity="0.14"/><stop offset="1" stop-color="#ff7bac" stop-opacity="0"/></linearGradient><linearGradient id="linear-gradient-5" y1="956.39" x2="279.89" y2="956.39" gradientUnits="userSpaceOnUse"><stop offset="0" stop-color="#56bc76" stop-opacity="0.8"/><stop offset="0.58" stop-color="#56bc76" stop-opacity="0.8"/><stop offset="0.73" stop-color="#9ad7ad" stop-opacity="0.48"/><stop offset="0.91" stop-color="#e2f4e8" stop-opacity="0.14"/><stop offset="1" stop-color="#fff" stop-opacity="0"/></linearGradient><linearGradient id="linear-gradient-6" x1="0" y1="1026.14" x2="279.89" y2="1026.14" xlink:href="#linear-gradient-5"/><linearGradient id="linear-gradient-7" x1="371.74" y1="1154.85" x2="562.93" y2="1154.85" gradientTransform="translate(794.05 1895.75) rotate(-113.25)" gradientUnits="userSpaceOnUse"><stop offset="0.58" stop-color="#63b1be" stop-opacity="0.8"/><stop offset="0.74" stop-color="#a3d1d9" stop-opacity="0.47"/><stop offset="0.92" stop-color="#e5f2f4" stop-opacity="0.13"/><stop offset="1" stop-color="#fff" stop-opacity="0"/></linearGradient><linearGradient id="linear-gradient-8" x1="371.58" y1="1085.44" x2="573.21" y2="1085.44" xlink:href="#linear-gradient-7"/><linearGradient id="linear-gradient-9" x1="-98.88" y1="661.2" x2="70.2" y2="661.2" gradientTransform="translate(1174.27 460.37) rotate(-90.12)" gradientUnits="userSpaceOnUse"><stop offset="0" stop-color="#ead67d"/><stop offset="0.58" stop-color="#ead67d"/><stop offset="0.64" stop-color="#eedd93" stop-opacity="0.83"/><stop offset="0.82" stop-color="#f7efcd" stop-opacity="0.39"/><stop offset="0.94" stop-color="#fdfbf1" stop-opacity="0.11"/><stop offset="1" stop-color="#fff" stop-opacity="0"/></linearGradient><linearGradient id="linear-gradient-10" x1="-98.88" y1="593.2" x2="69.2" y2="593.2" gradientTransform="translate(1242.77 527.74) rotate(-90.12)" xlink:href="#linear-gradient-9"/><linearGradient id="linear-gradient-11" x1="471" y1="175.5" x2="508" y2="175.5" gradientTransform="translate(593.02 -471) rotate(90)" gradientUnits="userSpaceOnUse"><stop offset="0" stop-color="#e97581"/><stop offset="0.33" stop-color="#e97581"/><stop offset="0.36" stop-color="#e97581"/><stop offset="1" stop-color="#ff7bac" stop-opacity="0"/></linearGradient><linearGradient id="linear-gradient-12" x1="471" y1="108.5" x2="508" y2="108.5" xlink:href="#linear-gradient-11"/></defs><g id="Layer_3" data-name="Layer 3"><rect class="cls-1" x="0.02" width="1920" height="1080"/><rect class="cls-1" x="0.02" width="1920" height="1080"/></g><rect class="cls-2" x="1141.04" y="921.99" width="35" height="159.01" transform="translate(-12 14.07) rotate(-0.69)"/><rect class="cls-3" x="1210.54" y="921.99" width="35" height="159.03" transform="translate(-18.17 22.72) rotate(-1.05)"/><g class="cls-4"><path class="cls-5" d="M1430.94,433.34H1054.87a88.68,88.68,0,0,1-63.1-26.13l-23.13-23.14A88.62,88.62,0,0,1,942.5,321V143.47a54.3,54.3,0,0,0-54.24-54.23H521.87A89.34,89.34,0,0,1,432.63,0h35a54.3,54.3,0,0,0,54.24,54.24H888.26a89.34,89.34,0,0,1,89.24,89.23V321a53.88,53.88,0,0,0,15.88,38.35l23.14,23.14a53.88,53.88,0,0,0,38.35,15.88h376.07a53.88,53.88,0,0,0,38.35-15.88l103.1-103.1a88.67,88.67,0,0,1,63-26.13L1920,253l0,35-284.56.23a53.87,53.87,0,0,0-38.31,15.88L1494,407.21A88.65,88.65,0,0,1,1430.94,433.34Z" transform="translate(0.02)"/></g><g class="cls-4"><path class="cls-6" d="M1030,472.43c-15.49,0-35.47-8.18-46.51-19L887.59,359c-4.53-4.46-15.63-9-22-9H631.5V315H865.61c15.48,0,35.49,8.19,46.53,19.05l95.93,94.4c4.53,4.45,15.6,9,21.95,9h0l427.44-.41c6.39,0,17.57-4.55,22.15-9L1598,312.9c11.08-10.77,31.09-18.9,46.54-18.9H1921v35H1644.5c-6.39,0-17.56,4.54-22.13,9L1504,453.1C1493,463.87,1473,472,1457.52,472l-427.45.41Z" transform="translate(0.02)"/></g><g class="cls-4"><path class="cls-7" d="M1705.21,488.42v-96.7c0-7.69,3.87-21.13,8-27.64l206.95-330V.25l-.37-.23h-19.6L1683.51,345.48c-7.58,12.09-13.3,32-13.3,46.24v96.7a37.55,37.55,0,0,0,37.5,37.51L1920,526l0-35-212.29-.07A2.57,2.57,0,0,1,1705.21,488.42Z" transform="translate(0.02)"/></g><g class="cls-8"><path class="cls-9" d="M1177,1082.24l-3.72-271.5c-.16-11.06-.28-29.11-.28-40.24v-8a2.57,2.57,0,0,0-2.5-2.5h-27a43.08,43.08,0,0,1-43.06-43.77l1.17-70.83a42.05,42.05,0,0,1,41.91-41.22h.32l79.74.61h.11a14.22,14.22,0,0,0,14.21-14.22V413.25a78.05,78.05,0,0,1,78-78h34.53L1921,335l0,35-570.61.28h-34.54a43,43,0,0,0-43,43V590.57a49.22,49.22,0,0,1-49.2,49.22h-.39l-79.74-.61h0a6.93,6.93,0,0,0-6.91,6.8l-1.17,70.83a8.06,8.06,0,0,0,8.06,8.19h27a37.54,37.54,0,0,1,37.5,37.5v8c0,11,.12,28.83.27,39.76l3.73,271.5Z" transform="translate(0.02)"/></g><g class="cls-4"><path class="cls-10" d="M1920.11,1055.57l-207.52-74c-12.18-4.34-31.84-7.74-44.75-7.74H0v35.44H1667.84c9.07,0,24.53,2.68,33.09,5.73l182.35,65h36.83Z" transform="translate(0.02)"/></g><rect class="cls-11" x="631.5" y="280.38" width="279.5" height="35" transform="translate(-0.79 2.11) rotate(-0.16)"/><rect class="cls-12" x="754" y="226.46" width="35" height="281" transform="translate(401.6 1137.05) rotate(-89.78)"/><rect class="cls-13" x="0.02" y="938.89" width="279.86" height="35"/><rect class="cls-14" x="0.02" y="1008.64" width="279.86" height="35"/><path class="cls-15" d="M1718.71,1080l-69.08-164.28-32.26,13.56L1680.74,1080h37.88l.1,0Z" transform="translate(0.02)"/><path class="cls-16" d="M1629.41,1080h14L1581.62,933.7l-32.24,13.6,56,132.7h12.67l.07,0h11.29Z" transform="translate(0.02)"/><g class="cls-4"><path class="cls-17" d="M1319.51,375.22a40.49,40.49,0,0,0-40.46,40.38l-.84,176.79A51.37,51.37,0,0,0,1329.58,644H1565a2.57,2.57,0,0,1,2.5,2.5v232c0,13.43,4,32.89,9.21,45.25L1643.12,1080H1647l0,0h34.14L1609,910.07c-3.36-7.92-6.42-23-6.42-31.57v-232A37.55,37.55,0,0,0,1565,609H1329.58a16.37,16.37,0,0,1-16.37-16.44l.84-176.88a5.45,5.45,0,0,1,5.4-5.46l601.49,2,.12-35Z" transform="translate(0.02)"/></g><rect class="cls-18" x="1818" y="388.82" width="35" height="169" transform="translate(1358.34 2307.82) rotate(-89.88)"/><rect class="cls-19" x="1818.5" y="457.32" width="35" height="168" transform="translate(1290.81 2376.17) rotate(-89.88)"/><rect class="cls-20" x="400.02" width="35" height="37"/><rect class="cls-21" x="467.02" width="35" height="37"/></svg>